<svg xmlns="http://www.w3.org/2000/svg" id="Layer_1" viewBox="0 0 512 512"><defs><clipPath id="clippath"><path d="M0 0h512v512H0Z" style="fill:none"/></clipPath><style>.cls-3{fill:#fff}</style></defs><path d="M512 16c66.97 0 131.92 13.11 193.06 38.97 59.06 24.98 112.11 60.75 157.66 106.3 45.56 45.56 81.32 98.6 106.3 157.66 25.86 61.14 38.97 126.09 38.97 193.06s-13.11 131.92-38.97 193.06c-24.98 59.06-60.75 112.11-106.3 157.66-45.56 45.56-98.6 81.32-157.66 106.3-61.14 25.86-126.09 38.97-193.06 38.97s-131.92-13.11-193.06-38.97c-59.06-24.98-112.11-60.75-157.66-106.3-45.56-45.56-81.32-98.6-106.3-157.66-25.86-61.14-38.97-126.09-38.97-193.06s13.11-131.92 38.97-193.06c24.98-59.06 60.75-112.11 106.3-157.66 45.56-45.56 98.6-81.32 157.66-106.3C380.08 29.11 445.03 16 512 16m0-16C229.23 0 0 229.23 0 512s229.23 512 512 512 512-229.23 512-512S794.77 0 512 0" class="cls-3" style="clip-path:url(#clippath)"/><path d="M249.7 212.84h36v81.54h-36Z" class="cls-3" transform="rotate(-45 267.697 253.606)"/><path d="m211.94 274-27.87-104.02 104.02 27.86Z" class="cls-3"/></svg>