<svg xmlns="http://www.w3.org/2000/svg" xml:space="preserve" style="fill-rule:evenodd;clip-rule:evenodd;stroke-linejoin:round;stroke-miterlimit:2" viewBox="0 0 512 512"><path d="m131.84 179.6 51.8 138.52h-31.62l-10.48-30.85h-51.8l-10.86 30.85H48.23l52.38-138.52Zm1.75 84.97-17.46-50.83h-.39L97.7 264.57ZM260.85 179.6c6.6 0 12.61.58 18.04 1.75 5.43 1.16 10.09 3.07 13.97 5.72s6.89 6.18 9.02 10.57c2.13 4.4 3.2 9.83 3.2 16.3 0 6.98-1.58 12.8-4.75 17.46s-7.86 8.47-14.06 11.45c8.54 2.46 14.9 6.76 19.11 12.9 4.2 6.14 6.31 13.55 6.31 22.21 0 6.98-1.36 13.03-4.07 18.14-2.72 5.11-6.37 9.28-10.96 12.51s-9.83 5.63-15.71 7.18a71 71 0 0 1-18.14 2.33h-67.12V179.6h65.18Zm-3.88 56.07c5.43 0 9.89-1.29 13.39-3.88 3.49-2.59 5.24-6.79 5.24-12.61 0-3.23-.58-5.88-1.75-7.95-1.16-2.07-2.72-3.69-4.66-4.85s-4.17-1.97-6.69-2.42a44.6 44.6 0 0 0-7.86-.68h-28.52v32.4h30.85Zm1.75 58.78c2.97 0 5.82-.29 8.54-.87s5.11-1.55 7.18-2.91 3.72-3.2 4.95-5.53 1.84-5.3 1.84-8.92c0-7.11-2.01-12.19-6.01-15.23-4.01-3.04-9.31-4.56-15.91-4.56h-33.17v38.02h32.59ZM421.09 216.56a30.5 30.5 0 0 0-6.79-7.66c-2.72-2.2-5.79-3.91-9.21-5.14-3.43-1.23-7.02-1.84-10.77-1.84-6.86 0-12.68 1.33-17.46 3.98-4.79 2.65-8.67 6.21-11.64 10.67-2.98 4.46-5.14 9.54-6.5 15.23s-2.04 11.58-2.04 17.65.68 11.48 2.04 16.97c1.36 5.5 3.52 10.45 6.5 14.84 2.97 4.4 6.85 7.92 11.64 10.57 4.78 2.65 10.6 3.98 17.46 3.98 9.31 0 16.59-2.84 21.83-8.54q7.86-8.535 9.6-22.5h29.49c-.78 8.67-2.78 16.49-6.01 23.47s-7.5 12.93-12.8 17.85-11.51 8.67-18.62 11.25c-7.12 2.59-14.94 3.88-23.47 3.88-10.61 0-20.15-1.84-28.62-5.53s-15.62-8.76-21.44-15.23-10.28-14.07-13.39-22.8c-3.1-8.73-4.66-18.14-4.66-28.23s1.55-19.95 4.66-28.81c3.1-8.86 7.57-16.59 13.39-23.18s12.96-11.77 21.44-15.52c8.47-3.75 18.01-5.63 28.62-5.63q11.445 0 21.63 3.3t18.24 9.6c5.37 4.2 9.8 9.41 13.29 15.62s5.69 13.32 6.6 21.34h-29.49c-.52-3.49-1.68-6.69-3.49-9.6Z" style="fill:#fff;fill-rule:nonzero" transform="translate(-61.264 -64.491)scale(1.25926)"/></svg>