<svg xmlns="http://www.w3.org/2000/svg" id="Layer_1" viewBox="0 0 512 512"><defs><clipPath id="clippath"><path d="M25.93 0h473.91v480.8H25.93Z" style="fill:none"/></clipPath><style>.cls-3{fill:#fff}</style></defs><path d="M500.34 508.67h-1V482H26.43v26.67h-1V481h474.91Z" class="cls-3"/><path d="M72.82 481.5h1v13.33h-1ZM120.21 481.5h1v13.33h-1ZM167.6 481.5h1v13.33h-1ZM214.99 481.5h1v13.33h-1ZM262.38 481.5h1v23.97h-1ZM309.77 481.5h1v13.33h-1ZM357.16 481.5h1v13.33h-1ZM404.55 481.5h1v13.33h-1ZM451.95 481.5h1v13.33h-1ZM25.85 481.3H2.92v-1h21.93V12.27H2.92v-1h22.93Z" class="cls-3"/><path d="M14.35 58.17h11v1h-11ZM14.35 105.07h11v1h-11ZM14.35 151.98h11v1h-11ZM14.35 198.88h11v1h-11ZM5.57 245.78h19.78v1H5.57ZM14.35 292.69h11v1h-11ZM14.35 339.59h11v1h-11ZM14.35 386.49h11v1h-11ZM14.35 433.4h11v1h-11ZM21.43 476.3h482.91v9H21.43Z" class="cls-3"/><path d="M21.43 7.26h9V485.3h-9Z" class="cls-3"/><path d="M22.64 455.54h-17c0-90.03 12.7-174.96 35.75-239.15 11.47-31.93 25.17-58.12 40.72-77.84 16.54-20.97 34.81-34.15 54.31-39.19 33.38-8.62 85.29 3 143.05 107.33 42.55 76.86 80.05 114.28 111.47 111.24 53.21-5.17 93.17-129.11 119.62-211.13l16.18 5.22c-15.93 49.41-34.71 105.64-56.06 147.53-24.42 47.94-49.96 72.57-78.09 75.3-1.74.17-3.49.25-5.25.25-37.81 0-78.02-39.4-122.74-120.18-21.87-39.51-44.32-67.91-66.72-84.41-19.66-14.48-38.9-19.42-57.2-14.69-32.06 8.28-61.63 46.04-83.28 106.32-22.41 62.39-34.75 145.28-34.75 233.4Z" class="cls-3" style="clip-path:url(#clippath)"/></svg>