<svg xmlns="http://www.w3.org/2000/svg" xml:space="preserve" style="fill-rule:evenodd;clip-rule:evenodd;stroke-linejoin:round;stroke-miterlimit:2" viewBox="0 0 512 512"><path d="M316.7 89.84c-7.04 5.31-30.98 16.92-61.94 18.8l1.09 17.97c18.25-1.11 33.9-4.84 46.37-9.4l11.76 28.09c-5.28 27.53-17.35 66.21-33.76 97.49-8.14 11.52-28.55 46.05-40.48 54.32 10.82 0 19.98 5.61 25.61 13.09.85 1.13 1.64 2.32 2.36 3.54l78.67-91.02 7.66 18.3c-30.99 15.9-52.25 48.19-52.25 85.32 0 52.82 43.02 95.84 95.86 95.84s95.86-43.01 95.86-95.84-43.03-95.84-95.86-95.84c-9.1 0-18.15 1.29-26.88 3.85l-38.06-90.93 11.05-1.04c1.75-3.51 5.7-11.74-3.12-18.71l-15.89.74-6.09-14.54c3.5-1.92 6.49-3.84 8.88-5.64L316.7 89.86Zm-153.62 66.54c-7.18-.03-13.68.7-18.12 2.69-6.6 2.96-4.67 21.15 5.44 27.33 7.19.44 13.73-.15 21.03-1.31l4.68 11.37H60.07v18h13.24l4.16 14.56C42.88 243.5 18.5 277.7 18.5 317.46c0 52.82 43.03 95.84 95.86 95.84 36 0 67.43-19.97 83.82-49.4l-19.28-2.8c-13.98 20.66-37.63 34.2-64.54 34.2-43.11 0-77.86-34.74-77.86-77.84 0-31.71 18.83-58.88 45.95-71.03l15.21 53.24c2.9-1.58 6.22-2.55 9.79-2.55h8.2l-16.03-56.09c4.86-.93 9.79-1.4 14.74-1.4 13.05 0 25.33 3.2 36.11 8.84l-31.69 48.65h21.48l25.09-38.52c11.54 9.99 20.1 23.33 24.18 38.52h18.49c-4.65-21.41-16.48-40.18-32.83-53.64l12.41-19.05 29.92 72.69h19.81L189.5 181.74c5.57-1.08 11.77-2.24 18.98-3.4 15.62-2.51 10.97-10.97-.35-15.3-3.98-1.52-26.71-6.56-45.05-6.64Zm162.77 17.28 12.76 30.5-45.56 52.72c1.05-1.89 2.09-3.8 3.1-5.73 12.93-24.65 23.02-52.67 29.7-77.49M92.02 214.45h80.59l-12.32 18.92c-13.65-7.49-29.31-11.75-45.94-11.75-6.75 0-13.34.71-19.7 2.04Zm305.62 34.04c43.11 0 77.86 34.74 77.86 77.84 0 43.09-34.75 77.84-77.86 77.84s-77.86-34.74-77.86-77.84c0-29.83 16.66-55.65 41.2-68.72l28.36 67.76 16.6-6.95-28.2-67.37c6.49-1.7 13.18-2.56 19.89-2.56ZM107.45 315.1c-.96 0-1.59.25-2.71 1.64-1.12 1.38-2.16 3.89-2.38 6.4s.33 4.86 1.3 6.39c.97 1.52 2.16 2.63 5.4 3.24l122.21 17.73.14.02c10.01 1.77 15.4-.19 18.7-2.89 3.29-2.7 5.11-6.94 5.29-12.06s-1.55-10.74-4.42-14.56c-2.88-3.82-6.29-5.92-11.26-5.92H107.45Z" style="fill:#fff;fill-rule:nonzero" transform="matrix(1.07785 0 0 1.09017 -19.93 -23.084)"/></svg>