<svg xmlns="http://www.w3.org/2000/svg" id="Layer_1" viewBox="0 0 512 512"><defs><style>.cls-1{fill:#fff}</style></defs><path d="M319.99 493.68h-53.65V18.32h53.65v1h-52.65v473.36h52.65Z" class="cls-1"/><path d="M266.84 445.25h26.07v1h-26.07ZM266.84 397.81h26.07v1h-26.07ZM266.84 350.37h26.07v1h-26.07ZM266.84 302.94h26.07v1h-26.07ZM266.84 255.5h46.88v1h-46.88ZM266.84 208.06h26.07v1h-26.07ZM266.84 160.63h26.07v1h-26.07ZM266.84 113.19h26.07v1h-26.07ZM266.84 65.75h26.07v1h-26.07Z" class="cls-1"/><path d="M257.47 10.82h16v490.36h-16ZM192.01 230.98l63.95 63.95-63.95 63.94Z" class="cls-1"/></svg>