<svg xmlns="http://www.w3.org/2000/svg" xml:space="preserve" style="fill-rule:evenodd;clip-rule:evenodd;stroke-linejoin:round;stroke-miterlimit:2" viewBox="0 0 512 512"><path d="M76.91 162.27c5.1-8.74 11.71-16.02 19.84-21.84s17.29-10.19 27.48-13.1 20.5-4.37 30.94-4.37c15.77 0 29.12 2.43 40.04 7.28 10.92 4.86 19.71 10.74 26.39 17.65 6.67 6.92 11.47 14.32 14.38 22.2 2.91 7.89 4.37 14.99 4.37 21.29 0 12.62-3.09 23.66-9.28 33.12s-15.47 16.26-27.85 20.38v.73q22.935 5.1 35.31 21.66c8.25 11.04 12.38 24.57 12.38 40.59q0 20.385-8.19 35.31t-21.66 24.75c-8.98 6.55-19.17 11.47-30.58 14.74a125.9 125.9 0 0 1-34.94 4.91c-11.88 0-24.33-1.52-35.85-4.55-11.53-3.03-21.84-7.83-30.94-14.38q-13.65-9.825-21.84-24.75t-8.19-35.67c0-16.25 4.19-29.85 12.56-40.77q12.555-16.38 35.49-21.84v-.73c-12.38-3.4-21.72-9.83-28.03-19.29s-9.46-20.5-9.46-33.12c0-11.4 2.55-21.48 7.64-30.21Zm37.13 161.25c2.42 5.34 5.64 9.89 9.65 13.65 4 3.77 8.79 6.68 14.38 8.74 5.58 2.06 11.4 3.09 17.47 3.09s12.07-1.03 17.29-3.09 9.83-4.97 13.83-8.74c4-3.76 7.1-8.31 9.28-13.65 2.18-5.33 3.28-11.16 3.28-17.47s-1.15-11.58-3.46-16.56c-2.31-4.97-5.46-9.28-9.46-12.92s-8.62-6.43-13.83-8.37c-5.22-1.94-10.86-2.91-16.93-2.91-12.62 0-23.3 3.46-32.03 10.37-8.74 6.92-13.1 16.93-13.1 30.03 0 6.55 1.21 12.5 3.64 17.84Zm13.83-101.37q11.64 8.55 27.3 8.55c10.44 0 20.02-2.85 27.3-8.55q10.92-8.55 10.92-24.93c0-3.4-.49-7.1-1.46-11.1s-2.86-7.83-5.64-11.47c-2.79-3.64-6.68-6.67-11.65-9.1-4.98-2.42-11.47-3.64-19.47-3.64-5.1 0-10.01.79-14.74 2.37s-8.92 3.82-12.56 6.73-6.5 6.55-8.55 10.92c-2.06 4.37-3.09 9.46-3.09 15.29 0 10.92 3.88 19.24 11.65 24.93ZM279.3 162.27c5.1-8.74 11.71-16.02 19.84-21.84s17.29-10.19 27.48-13.1 20.5-4.37 30.94-4.37c15.77 0 29.12 2.43 40.04 7.28 10.92 4.86 19.71 10.74 26.39 17.65 6.67 6.92 11.47 14.32 14.38 22.2 2.91 7.89 4.37 14.99 4.37 21.29 0 12.62-3.09 23.66-9.28 33.12s-15.47 16.26-27.85 20.38v.73q22.935 5.1 35.31 21.66c8.25 11.04 12.38 24.57 12.38 40.59q0 20.385-8.19 35.31t-21.66 24.75c-8.98 6.55-19.17 11.47-30.58 14.74a125.9 125.9 0 0 1-34.94 4.91c-11.88 0-24.33-1.52-35.85-4.55-11.53-3.03-21.84-7.83-30.94-14.38q-13.65-9.825-21.84-24.75t-8.19-35.67c0-16.25 4.19-29.85 12.56-40.77q12.555-16.38 35.49-21.84v-.73c-12.38-3.4-21.72-9.83-28.03-19.29s-9.46-20.5-9.46-33.12c0-11.4 2.55-21.48 7.64-30.21Zm37.13 161.25c2.42 5.34 5.64 9.89 9.65 13.65 4 3.77 8.79 6.68 14.38 8.74 5.58 2.06 11.4 3.09 17.47 3.09s12.07-1.03 17.29-3.09 9.83-4.97 13.83-8.74c4-3.76 7.1-8.31 9.28-13.65 2.18-5.33 3.28-11.16 3.28-17.47s-1.15-11.58-3.46-16.56c-2.31-4.97-5.46-9.28-9.46-12.92s-8.62-6.43-13.83-8.37c-5.22-1.94-10.86-2.91-16.93-2.91-12.62 0-23.3 3.46-32.03 10.37-8.74 6.92-13.1 16.93-13.1 30.03 0 6.55 1.21 12.5 3.64 17.84Zm13.83-101.37q11.64 8.55 27.3 8.55c10.44 0 20.02-2.85 27.3-8.55q10.92-8.55 10.92-24.93c0-3.4-.49-7.1-1.46-11.1s-2.86-7.83-5.64-11.47c-2.79-3.64-6.68-6.67-11.65-9.1-4.98-2.42-11.47-3.64-19.47-3.64-5.1 0-10.01.79-14.74 2.37s-8.92 3.82-12.56 6.73-6.5 6.55-8.55 10.92c-2.06 4.37-3.09 9.46-3.09 15.29 0 10.92 3.88 19.24 11.65 24.93Z" style="fill:#fff;fill-rule:nonzero" transform="translate(-76.171 -75.95)scale(1.29753)"/></svg>