<svg xmlns="http://www.w3.org/2000/svg" xml:space="preserve" style="fill-rule:evenodd;clip-rule:evenodd;stroke-linejoin:round;stroke-miterlimit:2" viewBox="0 0 512 512"><path d="M160.59 174.05h78.22v163.9h-78.22Z" style="fill:#fff" transform="translate(-82.723 -67.508)scale(1.2637)"/><path d="m351.41 414.54-93.54-76.59v-163.9l93.54-76.59Z" style="fill:#fff;fill-rule:nonzero" transform="translate(-82.723 -67.508)scale(1.2637)"/><clipPath id="_clip1"><path d="m576.257-9.884 265.886 265.886-265.886 265.886L310.37 256.002Z"/></clipPath><g clip-path="url(#_clip1)"><path d="M313.7 364.08c-59.59 0-108.08-48.48-108.08-108.08S254.1 147.92 313.7 147.92 421.78 196.4 421.78 256 373.3 364.08 313.7 364.08m0-210.16c-56.29 0-102.08 45.79-102.08 102.08s45.79 102.08 102.08 102.08S415.78 312.29 415.78 256 369.99 153.92 313.7 153.92" style="fill:#fff;fill-rule:nonzero" transform="translate(-82.723 -67.508)scale(1.2637)"/><path d="M313.7 412.92c-86.53 0-156.92-70.4-156.92-156.92S227.18 99.08 313.7 99.08 470.62 169.48 470.62 256s-70.4 156.92-156.92 156.92m0-307.85c-83.22 0-150.92 67.7-150.92 150.92s67.7 150.92 150.92 150.92 150.92-67.7 150.92-150.92-67.7-150.92-150.92-150.92" style="fill:#fff;fill-rule:nonzero" transform="translate(-82.723 -67.508)scale(1.2637)"/></g></svg>