<svg xmlns="http://www.w3.org/2000/svg" xml:space="preserve" style="fill-rule:evenodd;clip-rule:evenodd;stroke-linejoin:round;stroke-miterlimit:2" viewBox="0 0 512 512"><g transform="translate(-6.462 -6.236)scale(1.02509)"><circle cx="33.28" cy="248.49" r="24.05" style="fill:#fff"/><circle cx="144.64" cy="248.49" r="24.05" style="fill:#fff"/><path d="M256 275.54c-14.92 0-27.05-12.13-27.05-27.05s12.13-27.05 27.05-27.05 27.05 12.13 27.05 27.05-12.13 27.05-27.05 27.05m0-48.1c-11.61 0-21.05 9.44-21.05 21.05s9.44 21.05 21.05 21.05 21.05-9.44 21.05-21.05-9.44-21.05-21.05-21.05M478.72 275.54c-14.92 0-27.05-12.13-27.05-27.05s12.13-27.05 27.05-27.05 27.05 12.13 27.05 27.05-12.13 27.05-27.05 27.05m0-48.1c-11.61 0-21.05 9.44-21.05 21.05s9.44 21.05 21.05 21.05 21.05-9.44 21.05-21.05-9.44-21.05-21.05-21.05M367.36 275.54c-14.92 0-27.05-12.13-27.05-27.05s12.13-27.05 27.05-27.05 27.05 12.13 27.05 27.05-12.13 27.05-27.05 27.05m0-48.1c-11.61 0-21.05 9.44-21.05 21.05s9.44 21.05 21.05 21.05 21.05-9.44 21.05-21.05-9.44-21.05-21.05-21.05" style="fill:#fff;fill-rule:nonzero"/></g></svg>