<?xml version="1.0" encoding="UTF-8"?><svg id="Layer_1" xmlns="http://www.w3.org/2000/svg" viewBox="0 0 512 512"><defs><style>.cls-1{fill:#ffffff;}</style></defs><g><polygon class="cls-1" points="319.99 493.68 266.34 493.68 266.34 18.32 319.99 18.32 319.99 19.32 267.34 19.32 267.34 492.68 319.99 492.68 319.99 493.68"/><rect class="cls-1" x="266.84" y="445.25" width="26.07" height="1"/><rect class="cls-1" x="266.84" y="397.81" width="26.07" height="1"/><rect class="cls-1" x="266.84" y="350.37" width="26.07" height="1"/><rect class="cls-1" x="266.84" y="302.94" width="26.07" height="1"/><rect class="cls-1" x="266.84" y="255.5" width="46.88" height="1"/><rect class="cls-1" x="266.84" y="208.06" width="26.07" height="1"/><rect class="cls-1" x="266.84" y="160.63" width="26.07" height="1"/><rect class="cls-1" x="266.84" y="113.19" width="26.07" height="1"/><rect class="cls-1" x="266.84" y="65.75" width="26.07" height="1"/></g><rect class="cls-1" x="257.47" y="10.82" width="16" height="490.36"/><polygon class="cls-1" points="192.01 230.98 255.96 294.93 192.01 358.87 192.01 230.98"/></svg>