<?xml version="1.0" encoding="UTF-8" standalone="no"?>
<!DOCTYPE svg PUBLIC "-//W3C//DTD SVG 1.1//EN" "http://www.w3.org/Graphics/SVG/1.1/DTD/svg11.dtd">
<svg width="100%" height="100%" viewBox="0 0 512 512" version="1.1" xmlns="http://www.w3.org/2000/svg" xmlns:xlink="http://www.w3.org/1999/xlink" xml:space="preserve" xmlns:serif="http://www.serif.com/" style="fill-rule:evenodd;clip-rule:evenodd;stroke-linejoin:round;stroke-miterlimit:2;">
    <g transform="matrix(1.25926,0,0,1.25926,-61.2639,-64.4914)">
        <path d="M131.84,179.6L183.64,318.12L152.02,318.12L141.54,287.27L89.74,287.27L78.88,318.12L48.23,318.12L100.61,179.6L131.84,179.6ZM133.59,264.57L116.13,213.74L115.74,213.74L97.7,264.57L133.59,264.57Z" style="fill:white;fill-rule:nonzero;"/>
        <path d="M260.85,179.6C267.45,179.6 273.46,180.18 278.89,181.35C284.32,182.51 288.98,184.42 292.86,187.07C296.74,189.72 299.75,193.25 301.88,197.64C304.01,202.04 305.08,207.47 305.08,213.94C305.08,220.92 303.5,226.74 300.33,231.4C297.16,236.06 292.47,239.87 286.27,242.85C294.81,245.31 301.17,249.61 305.38,255.75C309.58,261.89 311.69,269.3 311.69,277.96C311.69,284.94 310.33,290.99 307.62,296.1C304.9,301.21 301.25,305.38 296.66,308.61C292.07,311.84 286.83,314.24 280.95,315.79C275.06,317.34 269.02,318.12 262.81,318.12L195.69,318.12L195.69,179.6L260.87,179.6L260.85,179.6ZM256.97,235.67C262.4,235.67 266.86,234.38 270.36,231.79C273.85,229.2 275.6,225 275.6,219.18C275.6,215.95 275.02,213.3 273.85,211.23C272.69,209.16 271.13,207.54 269.19,206.38C267.25,205.22 265.02,204.41 262.5,203.96C259.98,203.51 257.36,203.28 254.64,203.28L226.12,203.28L226.12,235.68L256.97,235.68L256.97,235.67ZM258.72,294.45C261.69,294.45 264.54,294.16 267.26,293.58C269.98,293 272.37,292.03 274.44,290.67C276.51,289.31 278.16,287.47 279.39,285.14C280.62,282.81 281.23,279.84 281.23,276.22C281.23,269.11 279.22,264.03 275.22,260.99C271.21,257.95 265.91,256.43 259.31,256.43L226.14,256.43L226.14,294.45L258.73,294.45L258.72,294.45Z" style="fill:white;fill-rule:nonzero;"/>
        <path d="M421.09,216.56C419.28,213.65 417.02,211.1 414.3,208.9C411.58,206.7 408.51,204.99 405.09,203.76C401.66,202.53 398.07,201.92 394.32,201.92C387.46,201.92 381.64,203.25 376.86,205.9C372.07,208.55 368.19,212.11 365.22,216.57C362.24,221.03 360.08,226.11 358.72,231.8C357.36,237.49 356.68,243.38 356.68,249.45C356.68,255.52 357.36,260.93 358.72,266.42C360.08,271.92 362.24,276.87 365.22,281.26C368.19,285.66 372.07,289.18 376.86,291.83C381.64,294.48 387.46,295.81 394.32,295.81C403.63,295.81 410.91,292.97 416.15,287.27C421.39,281.58 424.59,274.08 425.75,264.77L455.24,264.77C454.46,273.44 452.46,281.26 449.23,288.24C446,295.22 441.73,301.17 436.43,306.09C431.13,311.01 424.92,314.76 417.81,317.34C410.69,319.93 402.87,321.22 394.34,321.22C383.73,321.22 374.19,319.38 365.72,315.69C357.25,312 350.1,306.93 344.28,300.46C338.46,293.99 334,286.39 330.89,277.66C327.79,268.93 326.23,259.52 326.23,249.43C326.23,239.34 327.78,229.48 330.89,220.62C333.99,211.76 338.46,204.03 344.28,197.44C350.1,190.85 357.24,185.67 365.72,181.92C374.19,178.17 383.73,176.29 394.34,176.29C401.97,176.29 409.18,177.39 415.97,179.59C422.76,181.79 428.84,184.99 434.21,189.19C439.58,193.39 444.01,198.6 447.5,204.81C450.99,211.02 453.19,218.13 454.1,226.15L424.61,226.15C424.09,222.66 422.93,219.46 421.12,216.55L421.09,216.56Z" style="fill:white;fill-rule:nonzero;"/>
    </g>
</svg>
