<?xml version="1.0" encoding="UTF-8"?><svg id="Layer_1" xmlns="http://www.w3.org/2000/svg" xmlns:xlink="http://www.w3.org/1999/xlink" viewBox="0 0 512 512"><defs><style>.cls-1{fill:none;}.cls-2{clip-path:url(#clippath);}.cls-3{fill:#ffffff;}</style><clipPath id="clippath"><rect class="cls-1" x="0" width="512" height="512"/></clipPath></defs><g class="cls-2"><path class="cls-3" d="m512,16c66.97,0,131.92,13.11,193.06,38.97,59.06,24.98,112.11,60.75,157.66,106.3,45.56,45.56,81.32,98.6,106.3,157.66,25.86,61.14,38.97,126.09,38.97,193.06s-13.11,131.92-38.97,193.06c-24.98,59.06-60.75,112.11-106.3,157.66-45.56,45.56-98.6,81.32-157.66,106.3-61.14,25.86-126.09,38.97-193.06,38.97s-131.92-13.11-193.06-38.97c-59.06-24.98-112.11-60.75-157.66-106.3-45.56-45.56-81.32-98.6-106.3-157.66-25.86-61.14-38.97-126.09-38.97-193.06s13.11-131.92,38.97-193.06c24.98-59.06,60.75-112.11,106.3-157.66,45.56-45.56,98.6-81.32,157.66-106.3,61.14-25.86,126.09-38.97,193.06-38.97m0-16C229.23,0,0,229.23,0,512s229.23,512,512,512,512-229.23,512-512S794.77,0,512,0h0Z"/></g><g><rect class="cls-3" x="249.7" y="212.84" width="36" height="81.54" transform="translate(-100.92 263.57) rotate(-45)"/><polygon class="cls-3" points="211.94 274 184.07 169.98 288.09 197.84 211.94 274"/></g></svg>