<?xml version="1.0" encoding="UTF-8"?><svg id="Layer_1" xmlns="http://www.w3.org/2000/svg" viewBox="0 0 512 512"><defs><style>.cls-1{fill:#ffffff;}</style></defs><path class="cls-1" d="m256,76c-132.55,0-240,107.45-240,240,0,43.72,11.45,84.7,31.88,120h148.12l31.88-64.69c-36.01-11.77-61.88-45.37-61.88-85.31,0-49.71,40.29-90,90-90s90,40.29,90,90v30h150c0-132.55-107.45-240-240-240Zm-4.22,150c-31.48,2.22-55.86,28.44-55.78,60,0,33.14,26.86,60,60,60s60-26.86,60-60c.08-33.14-26.71-60.07-59.85-60.15-1.46,0-2.91.05-4.37.15Z"/></svg>