<?xml version="1.0" encoding="UTF-8"?><svg id="Layer_1" xmlns="http://www.w3.org/2000/svg" xmlns:xlink="http://www.w3.org/1999/xlink" viewBox="0 0 512 512"><defs><style>.cls-1{fill:none;}.cls-2{clip-path:url(#clippath);}.cls-3{fill:#ffffff;}</style><clipPath id="clippath"><rect class="cls-1" x="25.93" width="473.91" height="480.8"/></clipPath></defs><g><polygon class="cls-3" points="500.34 508.67 499.34 508.67 499.34 482 26.43 482 26.43 508.67 25.43 508.67 25.43 481 500.34 481 500.34 508.67"/><rect class="cls-3" x="72.82" y="481.5" width="1" height="13.33"/><rect class="cls-3" x="120.21" y="481.5" width="1" height="13.33"/><rect class="cls-3" x="167.6" y="481.5" width="1" height="13.33"/><rect class="cls-3" x="214.99" y="481.5" width="1" height="13.33"/><rect class="cls-3" x="262.38" y="481.5" width="1" height="23.97"/><rect class="cls-3" x="309.77" y="481.5" width="1" height="13.33"/><rect class="cls-3" x="357.16" y="481.5" width="1" height="13.33"/><rect class="cls-3" x="404.55" y="481.5" width="1" height="13.33"/><rect class="cls-3" x="451.95" y="481.5" width="1" height="13.33"/></g><g><polygon class="cls-3" points="25.85 481.3 2.92 481.3 2.92 480.3 24.85 480.3 24.85 12.27 2.92 12.27 2.92 11.27 25.85 11.27 25.85 481.3"/><rect class="cls-3" x="14.35" y="58.17" width="11" height="1"/><rect class="cls-3" x="14.35" y="105.07" width="11" height="1"/><rect class="cls-3" x="14.35" y="151.98" width="11" height="1"/><rect class="cls-3" x="14.35" y="198.88" width="11" height="1"/><rect class="cls-3" x="5.57" y="245.78" width="19.78" height="1"/><rect class="cls-3" x="14.35" y="292.69" width="11" height="1"/><rect class="cls-3" x="14.35" y="339.59" width="11" height="1"/><rect class="cls-3" x="14.35" y="386.49" width="11" height="1"/><rect class="cls-3" x="14.35" y="433.4" width="11" height="1"/></g><rect class="cls-3" x="21.43" y="476.3" width="482.91" height="9"/><rect class="cls-3" x="21.43" y="7.26" width="9" height="478.04"/><g class="cls-2"><path class="cls-3" d="m22.64,455.54H5.64c0-90.03,12.7-174.96,35.75-239.15,11.47-31.93,25.17-58.12,40.72-77.84,16.54-20.97,34.81-34.15,54.31-39.19,33.38-8.62,85.29,3,143.05,107.33,42.55,76.86,80.05,114.28,111.47,111.24,53.21-5.17,93.17-129.11,119.62-211.13l16.18,5.22c-15.93,49.41-34.71,105.64-56.06,147.53-24.42,47.94-49.96,72.57-78.09,75.3-1.74.17-3.49.25-5.25.25-37.81,0-78.02-39.4-122.74-120.18-21.87-39.51-44.32-67.91-66.72-84.41-19.66-14.48-38.9-19.42-57.2-14.69-32.06,8.28-61.63,46.04-83.28,106.32-22.41,62.39-34.75,145.28-34.75,233.4Z"/></g></svg>