<?xml version="1.0" encoding="UTF-8" standalone="no"?>
<!DOCTYPE svg PUBLIC "-//W3C//DTD SVG 1.1//EN" "http://www.w3.org/Graphics/SVG/1.1/DTD/svg11.dtd">
<svg width="100%" height="100%" viewBox="0 0 512 512" version="1.1" xmlns="http://www.w3.org/2000/svg" xmlns:xlink="http://www.w3.org/1999/xlink" xml:space="preserve" xmlns:serif="http://www.serif.com/" style="fill-rule:evenodd;clip-rule:evenodd;stroke-linejoin:round;stroke-miterlimit:2;">
    <g transform="matrix(1.02509,0,0,1.02509,-6.46161,-6.23552)">
        <circle cx="33.28" cy="248.49" r="24.05" style="fill:white;"/>
        <circle cx="144.64" cy="248.49" r="24.05" style="fill:white;"/>
        <path d="M256,275.54C241.08,275.54 228.95,263.41 228.95,248.49C228.95,233.57 241.08,221.44 256,221.44C270.92,221.44 283.05,233.57 283.05,248.49C283.05,263.41 270.92,275.54 256,275.54ZM256,227.44C244.39,227.44 234.95,236.88 234.95,248.49C234.95,260.1 244.39,269.54 256,269.54C267.61,269.54 277.05,260.1 277.05,248.49C277.05,236.88 267.61,227.44 256,227.44Z" style="fill:white;fill-rule:nonzero;"/>
        <path d="M478.72,275.54C463.8,275.54 451.67,263.41 451.67,248.49C451.67,233.57 463.8,221.44 478.72,221.44C493.64,221.44 505.77,233.57 505.77,248.49C505.77,263.41 493.64,275.54 478.72,275.54ZM478.72,227.44C467.11,227.44 457.67,236.88 457.67,248.49C457.67,260.1 467.11,269.54 478.72,269.54C490.33,269.54 499.77,260.1 499.77,248.49C499.77,236.88 490.33,227.44 478.72,227.44Z" style="fill:white;fill-rule:nonzero;"/>
        <path d="M367.36,275.54C352.44,275.54 340.31,263.41 340.31,248.49C340.31,233.57 352.44,221.44 367.36,221.44C382.28,221.44 394.41,233.57 394.41,248.49C394.41,263.41 382.28,275.54 367.36,275.54ZM367.36,227.44C355.75,227.44 346.31,236.88 346.31,248.49C346.31,260.1 355.75,269.54 367.36,269.54C378.97,269.54 388.41,260.1 388.41,248.49C388.41,236.88 378.97,227.44 367.36,227.44Z" style="fill:white;fill-rule:nonzero;"/>
    </g>
</svg>
