<?xml version="1.0" encoding="UTF-8" standalone="no"?>
<!DOCTYPE svg PUBLIC "-//W3C//DTD SVG 1.1//EN" "http://www.w3.org/Graphics/SVG/1.1/DTD/svg11.dtd">
<svg width="100%" height="100%" viewBox="0 0 512 512" version="1.1" xmlns="http://www.w3.org/2000/svg" xmlns:xlink="http://www.w3.org/1999/xlink" xml:space="preserve" xmlns:serif="http://www.serif.com/" style="fill-rule:evenodd;clip-rule:evenodd;stroke-linejoin:round;stroke-miterlimit:2;">
    <g transform="matrix(1.07785,0,0,1.09017,-19.9302,-23.0844)">
        <path d="M316.7,89.84C309.66,95.15 285.72,106.76 254.76,108.64L255.85,126.61C274.1,125.5 289.75,121.77 302.22,117.21L313.98,145.3C308.7,172.83 296.63,211.51 280.22,242.79C272.08,254.31 251.67,288.84 239.74,297.11C250.56,297.11 259.72,302.72 265.35,310.2C266.2,311.33 266.99,312.52 267.71,313.74L346.38,222.72L354.04,241.02C323.05,256.92 301.79,289.21 301.79,326.34C301.79,379.16 344.81,422.18 397.65,422.18C450.49,422.18 493.51,379.17 493.51,326.34C493.51,273.51 450.48,230.5 397.65,230.5C388.55,230.5 379.5,231.79 370.77,234.35L332.71,143.42L343.76,142.38C345.51,138.87 349.46,130.64 340.64,123.67L324.75,124.41L318.66,109.87C322.16,107.95 325.15,106.03 327.54,104.23L316.7,89.86L316.7,89.84ZM163.08,156.38C155.9,156.35 149.4,157.08 144.96,159.07C138.36,162.03 140.29,180.22 150.4,186.4C157.59,186.84 164.13,186.25 171.43,185.09L176.11,196.46L60.07,196.46L60.07,214.46L73.31,214.46L77.47,229.02C42.88,243.5 18.5,277.7 18.5,317.46C18.5,370.28 61.53,413.3 114.36,413.3C150.36,413.3 181.79,393.33 198.18,363.9L178.9,361.1C164.92,381.76 141.27,395.3 114.36,395.3C71.25,395.3 36.5,360.56 36.5,317.46C36.5,285.75 55.33,258.58 82.45,246.43L97.66,299.67C100.56,298.09 103.88,297.12 107.45,297.12L115.65,297.12L99.62,241.03C104.48,240.1 109.41,239.63 114.36,239.63C127.41,239.63 139.69,242.83 150.47,248.47L118.78,297.12L140.26,297.12L165.35,258.6C176.89,268.59 185.45,281.93 189.53,297.12L208.02,297.12C203.37,275.71 191.54,256.94 175.19,243.48L187.6,224.43L217.52,297.12L237.33,297.12L189.5,181.74C195.07,180.66 201.27,179.5 208.48,178.34C224.1,175.83 219.45,167.37 208.13,163.04C204.15,161.52 181.42,156.48 163.08,156.4L163.08,156.38ZM325.85,173.66L338.61,204.16L293.05,256.88C294.1,254.99 295.14,253.08 296.15,251.15C309.08,226.5 319.17,198.48 325.85,173.66ZM92.02,214.45L172.61,214.45L160.29,233.37C146.64,225.88 130.98,221.62 114.35,221.62C107.6,221.62 101.01,222.33 94.65,223.66L92.02,214.45ZM397.64,248.49C440.75,248.49 475.5,283.23 475.5,326.33C475.5,369.42 440.75,404.17 397.64,404.17C354.53,404.17 319.78,369.43 319.78,326.33C319.78,296.5 336.44,270.68 360.98,257.61L389.34,325.37L405.94,318.42L377.74,251.05C384.23,249.35 390.92,248.49 397.63,248.49L397.64,248.49ZM107.45,315.1C106.49,315.1 105.86,315.35 104.74,316.74C103.62,318.12 102.58,320.63 102.36,323.14C102.14,325.65 102.69,328 103.66,329.53C104.63,331.05 105.82,332.16 109.06,332.77L231.27,350.5L231.41,350.52C241.42,352.29 246.81,350.33 250.11,347.63C253.4,344.93 255.22,340.69 255.4,335.57C255.58,330.45 253.85,324.83 250.98,321.01C248.1,317.19 244.69,315.09 239.72,315.09L107.45,315.09L107.45,315.1Z" style="fill:white;fill-rule:nonzero;"/>
    </g>
</svg>
