<?xml version="1.0" encoding="UTF-8"?><svg id="Layer_1" xmlns="http://www.w3.org/2000/svg" viewBox="0 0 512 512"><defs><style>.cls-1{fill:#ffffff;}</style></defs><path class="cls-1" d="m183.3,27.47l-13.9,3.47c1.3,46.77,4.4,95.66,2.5,138.36-2,45.3-8.9,84.5-32.9,106.7v211h234v-211c-24-22.2-30.9-61.4-32.9-106.7-1.9-42.7,1.2-91.59,2.5-138.36l-13.9-3.47c-1.1,22.08-5.3,46.02-14.5,66.25-10.8,23.78-30.2,43.28-58.2,43.28s-47.4-19.5-58.2-43.28c-9.2-20.23-13.4-44.17-14.5-66.25Zm18.2,3.33c1.4,19.18,5.4,39.48,12.7,55.48,9.2,20.22,21.8,32.72,41.8,32.72s32.6-12.5,41.8-32.72c7.3-16,11.3-36.3,12.7-55.48-23.6,11.67-38.5,18.2-54.5,18.2s-30.9-6.53-54.5-18.2Zm-50,4.59l-14.4,3.6c.4,37.62,3.8,78.91,1.9,117.41-2,39.5-9.8,76.6-34,102.9v227.7h16v-219.3l3.4-2.7c18.8-15.2,27.5-50.8,29.5-96.5,1.8-40.1-1-87.14-2.4-133.11Zm209,0c-1.4,45.97-4.2,93.01-2.4,133.11,2,45.7,10.7,81.3,29.5,96.5l3.4,2.7v219.3h16v-227.7c-24.2-26.3-32-63.4-34-102.9-1.9-38.5,1.5-79.79,1.9-117.41l-14.4-3.6Zm-65.1,188.61c9.4,0,16.8,2.8,22.3,8.4,5.5,5.6,8.2,13.1,8.2,22.4,0,6.2-1.5,12.2-4.4,18s-7.4,11.7-13.3,17.7c-8.3,8.5-14,14.5-16.9,18.2s-5,7.4-6.3,11.3h42.4v19.5h-63.9v-16.4c2.1-6.2,5.2-12.4,9.2-18.6,4-6.3,9.8-13.4,17.5-21.5,5.9-6.3,9.8-10.7,11.6-13.2,1.8-2.4,3.2-4.7,4.2-7s1.5-4.6,1.5-6.9c0-4.1-1-7.2-3-9.5-2.1-2.3-5.1-3.5-9-3.5s-6.8,1.4-8.9,4.1c-2.1,2.7-3.4,6.7-4,12.2l-18.3-1.3c1-11.1,4.2-19.5,9.5-25.2,5.3-5.8,12.5-8.7,21.6-8.7h0Zm-76.3,1.8h20.4v71.9h12.2v17.6h-12.2v24.2h-17.3v-24.2h-41.6v-17.8l38.5-71.7Zm3.6,20.6c-1.1,3.1-3.1,7.6-6.1,13.6l-20.7,37.7h26.3v-34.7c0-3,0-6.3.1-9.8.2-3.5.3-5.8.4-6.8h0Z"/></svg>