<?xml version="1.0" encoding="UTF-8"?><svg id="Layer_1" xmlns="http://www.w3.org/2000/svg" xmlns:xlink="http://www.w3.org/1999/xlink" viewBox="0 0 512 512"><defs><style>.cls-1,.cls-2,.cls-3{fill:none;}.cls-4{clip-path:url(#clippath);}.cls-5{fill:#ffffff;}.cls-2{stroke-width:10px;}.cls-2,.cls-3{stroke:#ffffff;stroke-miterlimit:10;}</style><clipPath id="clippath"><rect class="cls-1" width="512" height="512"/></clipPath></defs><g class="cls-4"><g><path class="cls-5" d="m502,10v492H10V10h492m10-10H0v512h512V0h0Z"/><g><polygon class="cls-5" points="240.97 393.7 250.97 411.12 250.97 476.1 230.97 476.1 230.97 411.12 240.97 393.7"/><rect class="cls-5" x="230.97" y="486.1" width="20" height="25.9"/><polygon class="cls-5" points="388.44 8.82 250.97 200.26 250.97 391.04 249.64 388.72 240.97 373.61 232.3 388.72 230.97 391.04 230.97 193.82 372.2 -2.84 388.44 8.82"/></g><line class="cls-2" x1="3.94" y1="345.51" x2="512" y2="345.51"/><line class="cls-2" x1="274.18" x2="512" y2="151.46"/><polygon class="cls-5" points="288.28 476.1 193.66 476.1 240.97 393.7 288.28 476.1"/></g></g></svg>