<?xml version="1.0" encoding="UTF-8"?><svg id="Layer_1" xmlns="http://www.w3.org/2000/svg" viewBox="0 0 512 512"><defs><style>.cls-1{fill:#ffffff;}</style></defs><g><polygon class="cls-1" points="493.68 301.63 492.68 301.63 492.68 248.99 19.32 248.99 19.32 301.63 18.32 301.63 18.32 247.99 493.68 247.99 493.68 301.63"/><rect class="cls-1" x="65.76" y="248.49" width="1" height="26.07"/><rect class="cls-1" x="113.19" y="248.49" width="1" height="26.07"/><rect class="cls-1" x="160.63" y="248.49" width="1" height="26.07"/><rect class="cls-1" x="208.07" y="248.49" width="1" height="26.07"/><rect class="cls-1" x="255.5" y="248.49" width="1" height="46.88"/><rect class="cls-1" x="302.94" y="248.49" width="1" height="26.07"/><rect class="cls-1" x="350.37" y="248.49" width="1" height="26.07"/><rect class="cls-1" x="397.81" y="248.49" width="1" height="26.07"/><rect class="cls-1" x="445.25" y="248.49" width="1" height="26.07"/></g><rect class="cls-1" x="10.82" y="239.11" width="490.37" height="16"/><polygon class="cls-1" points="281.02 173.66 217.08 237.6 153.13 173.66 281.02 173.66"/></svg>